<svg width="14" height="12" viewBox="0 0 14 12" fill="none" xmlns="http://www.w3.org/2000/svg">
<path d="M1.196 10.248C1.284 10.384 1.412 10.488 1.58 10.56C1.74 10.64 1.928 10.68 2.144 10.68C2.328 10.68 2.508 10.596 2.684 10.428C2.868 10.268 2.96 9.992 2.96 9.6V0.599999H3.92V9.72C3.92 10.048 3.876 10.332 3.788 10.572C3.708 10.812 3.588 11.012 3.428 11.172C3.268 11.332 3.072 11.448 2.84 11.52C2.616 11.6 2.364 11.64 2.084 11.64C1.876 11.64 1.676 11.604 1.484 11.532C1.284 11.468 1.116 11.388 0.98 11.292C0.836 11.204 0.732 11.12 0.668 11.04L1.196 10.248ZM6.44281 4.8C6.44281 5.432 6.57881 5.996 6.85081 6.492C7.13081 6.988 7.51081 7.38 7.99081 7.668C8.47081 7.956 9.01481 8.1 9.62281 8.1C10.2388 8.1 10.7828 7.956 11.2548 7.668C11.7348 7.38 12.1108 6.988 12.3828 6.492C12.6628 5.996 12.8028 5.432 12.8028 4.8C12.8028 4.168 12.6628 3.604 12.3828 3.108C12.1108 2.612 11.7348 2.22 11.2548 1.932C10.7828 1.644 10.2388 1.5 9.62281 1.5C9.01481 1.5 8.47081 1.644 7.99081 1.932C7.51081 2.22 7.13081 2.612 6.85081 3.108C6.57881 3.604 6.44281 4.168 6.44281 4.8ZM5.36281 4.8C5.36281 4.184 5.46681 3.616 5.67481 3.096C5.89081 2.568 6.19081 2.112 6.57481 1.728C6.95881 1.336 7.41081 1.032 7.93081 0.816C8.45081 0.592 9.01481 0.48 9.62281 0.48C10.2388 0.48 10.8028 0.592 11.3148 0.816C11.8348 1.032 12.2868 1.336 12.6708 1.728C13.0548 2.112 13.3508 2.568 13.5588 3.096C13.7748 3.616 13.8828 4.184 13.8828 4.8C13.8828 5.408 13.7748 5.976 13.5588 6.504C13.3508 7.032 13.0548 7.492 12.6708 7.884C12.2868 8.268 11.8348 8.572 11.3148 8.796C10.8028 9.012 10.2388 9.12 9.62281 9.12C9.01481 9.12 8.45081 9.012 7.93081 8.796C7.41081 8.572 6.95881 8.268 6.57481 7.884C6.19081 7.492 5.89081 7.032 5.67481 6.504C5.46681 5.976 5.36281 5.408 5.36281 4.8Z" fill="black"/>
</svg>
